<svg width="30" height="30" viewBox="0 0 30 30" fill="none" xmlns="http://www.w3.org/2000/svg">
<mask id="mask0_809_632" style="mask-type:luminance" maskUnits="userSpaceOnUse" x="15" y="13" width="9" height="10">
<path d="M24 15.7166C24 15.0425 23.9419 14.3948 23.8328 13.7734H15.1841V17.4478H20.1259C19.9128 18.6357 19.2662 19.641 18.2934 20.3152V22.6983H21.2609C22.9976 21.0441 23.999 18.6093 23.999 15.7156L24 15.7166Z" fill="white"/>
</mask>
<g mask="url(#mask0_809_632)">
<path d="M29.1021 8.49512H10.0823V27.9757H29.1021V8.49512Z" fill="#3E82F1"/>
</g>
<mask id="mask1_809_632" style="mask-type:luminance" maskUnits="userSpaceOnUse" x="6" y="17" width="16" height="8">
<path d="M15.1841 25.0004C17.6632 25.0004 19.7425 24.1502 21.262 22.6985L18.2944 20.3154C17.4725 20.8851 16.4201 21.2227 15.1852 21.2227C12.7938 21.2227 10.7685 19.5516 10.0465 17.3057H6.97803V19.7669C8.48933 22.8716 11.5945 25.0004 15.1841 25.0004Z" fill="white"/>
</mask>
<g mask="url(#mask1_809_632)">
<path d="M26.364 12.0273H1.87622V30.2779H26.364V12.0273Z" fill="#32A753"/>
</g>
<mask id="mask2_809_632" style="mask-type:luminance" maskUnits="userSpaceOnUse" x="6" y="11" width="5" height="9">
<path d="M10.0454 17.3046C9.86188 16.7349 9.75786 16.1262 9.75786 15.4996C9.75786 14.873 9.86188 14.2643 10.0454 13.6946V11.2334H6.97694C6.35488 12.5162 6 13.9668 6 15.4996C6 17.0324 6.35488 18.483 6.97694 19.7658L10.0454 17.3046Z" fill="white"/>
</mask>
<g mask="url(#mask2_809_632)">
<path d="M15.1474 5.95508H0.89917V25.0433H15.1474V5.95508Z" fill="#F9BB00"/>
</g>
<mask id="mask3_809_632" style="mask-type:luminance" maskUnits="userSpaceOnUse" x="6" y="6" width="16" height="8">
<path d="M15.1841 9.77776C16.5323 9.77776 17.7427 10.2567 18.6942 11.1988L21.3283 8.47385C19.7374 6.94101 17.6591 6 15.1841 6C11.5945 6 8.48831 8.12888 6.97803 11.2336L10.0465 13.6948C10.7685 11.4498 12.7928 9.77776 15.1852 9.77776H15.1841Z" fill="white"/>
</mask>
<g mask="url(#mask3_809_632)">
<path d="M26.4303 0.72168H1.87622V18.9722H26.4303V0.72168Z" fill="#E74133"/>
</g>
</svg>
