<svg width="30" height="31" viewBox="0 0 30 31" fill="none" xmlns="http://www.w3.org/2000/svg">
<path d="M19.4658 6.62598C19.6867 6.44568 20.0128 6.4591 20.2188 6.66504L23.835 10.2813C23.9404 10.3867 24 10.5296 24 10.6787C23.9999 10.8278 23.9404 10.9708 23.835 11.0762L10.5762 24.335C10.4707 24.4404 10.3278 24.4999 10.1787 24.5H6.5625C6.25184 24.5 6 24.2482 6 23.9375V20.3213L6.00293 20.2656C6.01578 20.137 6.07282 20.0161 6.16504 19.9238L19.4229 6.66504L19.4658 6.62598ZM7.125 20.5547V23.375H9.94531L19.0264 14.2939L16.2051 11.4736L7.125 20.5547ZM17 10.6777L19.8213 13.499L22.6426 10.6787L19.8213 7.85742L17 10.6777Z" fill="black"/>
</svg>
