<svg width="180" height="150" viewBox="0 0 180 150" fill="none" xmlns="http://www.w3.org/2000/svg">
<path d="M11.7 28.68C11.6 28.12 12.48 27.86 12.62 28.38C13.1 30.06 13.18 32.86 13.3 35C14.86 35.14 16.68 34.9 18.92 34.5C19.06 34.46 19.24 34.58 19.26 34.9C19.28 35.16 19.12 35.34 18.98 35.38C17.78 35.74 14.96 36.1 13.22 35.94C12.58 35.88 12.26 35.6 12.22 34.82C12.14 33 12.06 30.52 11.7 28.68ZM20.68 24.54C20.92 24.32 21.28 24.46 21.5 24.72C22.02 25.3 22.36 26 22.34 26.74L22.28 31.58C22.88 31.56 23.58 31.52 24.32 31.46C24.62 31.44 24.96 31.42 25.22 31.44C25.5 31.46 25.62 31.6 25.62 31.84C25.62 32.24 25.42 32.36 25.14 32.4C25.02 32.42 24.48 32.3 24.06 32.32C23.4 32.36 22.82 32.38 22.26 32.38L22.18 39.04C22.16 39.82 22.04 40.88 21.54 40.94C21.3 40.98 21.14 40 21.14 39.46L21.22 27.34C21.22 26.94 21.18 26.24 20.96 25.82C20.72 25.34 20.42 24.78 20.68 24.54ZM28.4561 27.88C28.7361 29.64 28.7961 31.6 28.8961 33.3C30.1161 33.22 31.5761 33.1 32.8761 32.86C32.9761 31.14 33.0361 29.4 33.0561 27.52C31.4961 27.68 30.0961 27.78 28.4561 27.88ZM27.1961 27.2C27.2561 27.04 27.3961 26.98 27.8161 27C28.2361 27.02 28.6761 27 29.1161 27C30.1561 26.98 31.5161 26.82 33.0961 26.66C33.8561 26.58 34.0761 26.9 34.0761 27.38C34.0561 29.28 33.9561 30.74 33.8161 32.66C33.7761 33.18 33.6361 33.58 33.1561 33.68C32.0161 33.9 30.1561 34.16 28.9361 34.16C28.2761 34.16 27.9561 33.88 27.9161 33.26C27.8761 32.32 27.8161 29.16 27.4361 28.3C27.2561 27.86 27.1161 27.46 27.1961 27.2ZM36.6761 24.54C36.9161 24.34 37.2761 24.46 37.4961 24.74C38.0161 25.3 38.3561 26 38.3361 26.74L38.2761 30.28C38.8561 30.26 39.5761 30.22 40.3161 30.16C40.6161 30.14 40.9561 30.12 41.2161 30.14C41.4961 30.16 41.6161 30.3 41.6161 30.54C41.6161 30.94 41.4161 31.06 41.1361 31.1C41.0161 31.12 40.4761 31 40.0561 31.02C39.3961 31.06 38.8161 31.08 38.2561 31.1L38.1761 35.26C38.1561 36.02 38.0361 37.1 37.5561 37.16C37.2961 37.18 37.1361 36.2 37.1361 35.68L37.2161 27.34C37.2161 26.94 37.1761 26.24 36.9561 25.82C36.7161 25.34 36.4161 24.78 36.6761 24.54ZM29.6961 37C29.5161 36.36 30.3961 36.16 30.5961 36.7C30.9161 37.56 31.1961 39.08 31.2961 40.2C33.8961 40.54 36.4361 40.4 38.4361 40.26C38.9961 40.22 39.0361 41.02 38.5161 41.1C36.6561 41.38 33.6361 41.36 31.4561 41.12C30.8561 41.04 30.3761 40.78 30.2961 40C30.1961 39.02 29.9561 37.92 29.6961 37ZM51.6322 30.44C51.6322 32.38 50.4922 34.02 48.0922 34.02C45.6922 34.02 44.5522 32.38 44.5522 30.44C44.5322 28.48 45.6922 26.86 48.0922 26.86C50.4922 26.86 51.6322 28.46 51.6322 30.44ZM50.6122 30.46C50.6122 29.02 49.8922 27.8 48.0922 27.8C46.2922 27.8 45.5722 29.02 45.5722 30.46C45.5722 31.86 46.2922 33.08 48.0922 33.08C49.8922 33.08 50.6122 31.86 50.6122 30.46ZM54.4122 24.54C54.6522 24.32 55.0122 24.46 55.2322 24.72C55.7522 25.32 56.0922 26 56.0722 26.74L55.9122 39.04C55.8922 39.82 55.7722 40.88 55.2722 40.94C55.0322 40.98 54.8722 40 54.8722 39.46L54.9522 27.34C54.9522 26.94 54.9122 26.24 54.6922 25.82C54.4522 25.34 54.1522 24.78 54.4122 24.54ZM44.2922 36.78C46.6922 36.7 49.2522 36.54 52.3722 36.28C52.6922 36.26 53.0322 36.22 53.2322 36.2C53.5322 36.18 53.6922 36.38 53.7122 36.64C53.7322 36.96 53.5722 37.14 53.3722 37.18C53.1922 37.22 52.9522 37.1 52.3722 37.16C49.9122 37.38 46.3322 37.66 43.7322 37.68C43.0722 37.68 42.6322 36.98 42.8922 36.7C43.0722 36.5 43.6322 36.8 44.2922 36.78ZM63.7539 33.06C63.0739 32.98 63.1739 32.16 63.7739 32.22C64.1939 32.26 64.7939 32.26 65.5139 32.24C65.5139 31.48 65.4739 30.92 65.3139 30.16C65.1339 29.3 64.9739 28.86 65.2139 28.74C65.6739 28.52 66.2139 29.1 66.3939 30.66C66.4339 31.14 66.4739 31.68 66.4739 32.2C67.1339 32.18 67.8539 32.12 68.5539 32.06C68.5939 31.18 68.6139 30.22 68.3939 28.8C68.2939 28.2 69.3739 28.14 69.4339 28.66C69.5339 29.66 69.5339 31.02 69.4739 31.96C70.1139 31.88 70.7539 31.8 71.2939 31.7C71.7139 31.62 71.8739 32.38 71.4139 32.52C70.2139 32.88 65.7139 33.28 63.7539 33.06ZM64.9139 26.62C66.5739 26.56 68.5739 26.44 69.7339 26.32C70.0339 26.28 70.3739 26.24 70.5739 26.24C70.9739 26.24 71.0939 26.36 71.1139 26.66C71.1339 27.04 70.9139 27.16 70.6939 27.2C70.4739 27.24 70.2539 27.14 69.7339 27.18C68.6539 27.26 66.2739 27.5 64.4739 27.5C63.6939 27.5 63.2939 26.88 63.5139 26.52C63.6539 26.3 64.2539 26.64 64.9139 26.62ZM73.9339 24.54C74.1739 24.32 74.5339 24.46 74.7539 24.72C75.2739 25.32 75.6139 26 75.5939 26.74L75.4339 31.84C75.4139 32.62 75.2939 33.68 74.7939 33.74C74.5539 33.78 74.3939 32.8 74.3939 32.26L74.4739 27.34C74.4739 26.94 74.4339 26.24 74.2139 25.82C73.9739 25.34 73.6739 24.78 73.9339 24.54ZM66.6339 35.16C66.6939 35.06 67.0139 35.06 67.2339 35.06C69.3739 35.02 72.2539 34.92 74.3539 34.78C74.7739 34.76 75.2139 35.08 75.1739 35.54C75.1339 36.3 75.0939 37.08 75.0539 37.7C75.0139 38.32 74.6739 38.4 74.1539 38.42C72.1739 38.46 70.1339 38.52 68.0339 38.58L68.5539 40.46C70.7139 40.48 72.8739 40.46 74.9739 40.32C75.3939 40.3 75.5139 40.42 75.4739 40.68C75.4139 41.12 75.1939 41.24 74.8339 41.24C72.4139 41.28 70.7339 41.34 68.9739 41.34C68.1739 41.34 67.8139 41.08 67.5539 40.3C67.3739 39.7 67.1939 39.1 66.8939 38.52C66.6539 38.06 66.7739 37.76 67.2339 37.76C69.3739 37.76 72.2539 37.66 74.1139 37.52L74.1339 35.64C71.9539 35.76 69.3739 35.84 67.5339 35.94C66.9739 35.98 66.4339 35.5 66.6339 35.16ZM83.5986 28.84C83.4586 29.8 83.1986 30.74 82.8586 31.58C83.9186 32.58 85.3386 34.06 86.3586 35.54C86.6186 35.94 85.9786 36.44 85.6986 36.1C84.4386 34.52 83.3186 33.46 82.3586 32.64C81.4786 34.26 80.3386 35.56 79.3986 36.26C79.1586 36.44 78.8186 36.42 78.6186 36.3C78.3786 36.16 78.3786 36 78.5986 35.82C80.6386 34.04 81.8786 31.96 82.4586 29.38C82.7186 28.16 82.5386 27.3 82.8786 27.2C83.3986 27.04 83.6986 28.1 83.5986 28.84ZM88.2386 24.54C88.4786 24.32 88.8386 24.46 89.0586 24.72C89.5786 25.3 89.9186 26 89.8986 26.74L89.8386 31.58C90.4386 31.56 91.1386 31.52 91.8786 31.46C92.1786 31.44 92.5186 31.42 92.7786 31.44C93.0586 31.46 93.1786 31.6 93.1786 31.84C93.1786 32.24 92.9786 32.36 92.6986 32.4C92.5786 32.42 92.0386 32.3 91.6186 32.32C90.9586 32.36 90.3786 32.38 89.8186 32.38L89.7386 39.04C89.7186 39.82 89.5986 40.88 89.0986 40.94C88.8586 40.98 88.6986 40 88.6986 39.46L88.7786 27.34C88.7786 26.94 88.7386 26.24 88.5186 25.82C88.2786 25.34 87.9786 24.78 88.2386 24.54ZM97.6347 27.14C97.6947 27.04 98.0147 27.04 98.2347 27.04C100.375 27 102.555 26.92 104.655 26.78C105.075 26.76 105.515 27.08 105.475 27.54C105.435 28.28 105.395 29.64 105.335 30.26C105.255 30.84 104.955 30.9 104.415 30.9C102.635 30.92 100.875 31.02 98.7547 31.1L99.3347 33.38C101.475 33.42 103.495 33.46 105.455 33.28C105.775 33.26 105.955 33.38 105.935 33.64C105.915 34.06 105.655 34.16 105.275 34.18C104.275 34.22 103.355 34.24 102.495 34.26C102.515 34.32 102.515 34.36 102.515 34.42L102.455 37.2C104.335 37.14 106.195 37.06 108.055 37C108.375 36.98 108.715 36.92 108.915 36.92C109.235 36.92 109.375 37.04 109.395 37.32C109.415 37.72 109.235 37.86 108.955 37.9C108.755 37.92 108.575 37.84 108.095 37.86C103.515 37.96 99.5147 38.08 94.9347 38.18C94.2747 38.2 93.8347 37.52 94.1147 37.2C94.2947 37 94.8347 37.28 95.4747 37.28C97.4347 37.3 99.4547 37.28 101.495 37.22L101.435 34.38C101.435 34.36 101.435 34.32 101.455 34.28C100.855 34.28 100.275 34.28 99.7147 34.26C98.8747 34.24 98.4747 34.02 98.2947 33.26C98.1347 32.56 97.8947 31.56 97.5747 30.8C97.4547 30.52 97.5147 30.26 98.0947 30.26C99.9747 30.26 102.075 30.14 104.375 29.96L104.395 27.68C102.215 27.8 100.375 27.88 98.5347 27.96C97.9747 28 97.4347 27.5 97.6347 27.14ZM116.942 26.36C117.022 26.3 117.142 26.32 117.302 26.4C118.202 26.82 119.142 27.08 120.902 26.9C121.182 26.88 121.322 26.9 121.362 27.06C121.402 27.28 121.342 27.52 120.962 27.64C120.102 27.92 118.502 28.02 117.362 27.34C116.902 27.06 116.742 26.56 116.942 26.36ZM116.302 29.84C116.342 29.72 116.542 29.76 117.182 29.7C118.142 29.62 119.382 29.5 120.862 29.28C121.102 29.26 121.322 29.28 121.522 29.4C121.802 29.54 121.982 29.78 121.922 30C121.582 31.1 121.022 32.24 120.362 33.26C121.242 34.02 122.302 34.96 123.022 35.88C123.262 36.18 122.702 36.82 122.322 36.42C121.442 35.5 120.542 34.74 119.742 34.14C118.982 35.16 118.142 36.02 117.362 36.6C117.102 36.8 116.842 36.82 116.562 36.68C116.402 36.6 116.382 36.44 116.582 36.24C118.522 34.38 119.862 32.68 120.902 30.12C119.202 30.34 118.622 30.44 117.462 30.58C116.742 30.68 116.162 30.24 116.302 29.84ZM125.562 31.36C126.382 31.32 126.922 31.28 127.222 31.24C127.462 31.24 127.682 31.22 127.842 31.2L127.862 27.34C127.862 26.94 127.802 26.24 127.562 25.82C127.322 25.36 127.042 24.78 127.302 24.54C127.542 24.34 127.882 24.48 128.102 24.74C128.602 25.3 128.922 26 128.922 26.76L128.782 39.06C128.762 39.82 128.622 40.88 128.122 40.94C127.902 40.96 127.802 40 127.802 39.48L127.822 32.12C127.742 32.12 127.662 32.12 127.562 32.1C126.882 32.1 126.222 32.12 125.562 32.16L125.462 37.5C125.442 38.26 125.342 39.34 124.842 39.38C124.622 39.4 124.482 38.44 124.482 37.9L124.562 29.14C124.562 28.72 124.502 28.04 124.282 27.62C124.042 27.14 123.762 26.58 124.022 26.34C124.242 26.12 124.582 26.26 124.802 26.52C125.302 27.08 125.622 27.8 125.622 28.54L125.562 31.36ZM136.183 29.42C136.183 30.86 137.303 31.76 139.083 31.74C140.843 31.74 141.983 30.88 141.983 29.42C141.963 27.92 140.843 27.1 139.083 27.1C137.323 27.08 136.183 27.96 136.183 29.42ZM135.143 29.42C135.143 27.44 136.683 26.24 139.083 26.24C141.443 26.24 143.043 27.42 143.023 29.42C143.023 31.38 141.443 32.6 139.083 32.6C136.683 32.6 135.143 31.38 135.143 29.42ZM139.723 35.42V39.38C139.723 40.72 139.483 41.1 139.143 41.12C138.823 41.14 138.683 40.76 138.663 39.92L138.603 35.44C136.483 35.5 134.363 35.56 132.103 35.6C131.443 35.62 131.003 34.94 131.283 34.62C131.463 34.42 132.003 34.7 132.643 34.7C136.723 34.74 141.043 34.56 145.223 34.42C145.543 34.4 145.883 34.34 146.083 34.34C146.403 34.34 146.543 34.46 146.563 34.74C146.583 35.14 146.403 35.28 146.123 35.32C145.923 35.34 145.743 35.26 145.263 35.28C143.343 35.32 141.523 35.38 139.723 35.42ZM150.329 35.06C151.869 35.16 153.409 34.96 155.449 34.54C156.049 34.42 156.129 35.18 155.649 35.36C154.549 35.76 151.589 36.12 150.309 35.94C149.669 35.86 149.349 35.6 149.309 34.82C149.269 33.86 149.269 30.7 149.049 29.94C148.909 29.42 148.649 28.94 148.729 28.66C148.789 28.44 148.929 28.34 149.329 28.36C149.709 28.38 150.069 28.38 150.449 28.38C151.349 28.38 152.129 28.3 153.089 28.2C153.489 28.16 153.889 28.1 154.249 28.08C154.849 28.06 155.089 28.22 155.089 28.56C155.089 28.9 154.869 29.04 154.349 29.06C152.249 29.14 151.469 29.18 149.909 29.26C150.189 30.62 150.349 33.7 150.329 35.06ZM157.809 24.54C158.049 24.32 158.409 24.46 158.629 24.72C159.149 25.3 159.489 26 159.469 26.74L159.409 31.58C160.009 31.56 160.709 31.52 161.449 31.46C161.749 31.44 162.089 31.42 162.349 31.44C162.629 31.46 162.749 31.6 162.749 31.84C162.749 32.24 162.549 32.36 162.269 32.4C162.149 32.42 161.609 32.3 161.189 32.32C160.529 32.36 159.949 32.38 159.389 32.38L159.309 39.04C159.289 39.82 159.169 40.88 158.669 40.94C158.429 40.98 158.269 40 158.269 39.46L158.349 27.34C158.349 26.94 158.309 26.24 158.089 25.82C157.849 25.34 157.549 24.78 157.809 24.54ZM166.005 38.76C166.505 38.76 166.745 39.08 166.745 39.82C166.745 40.2 166.645 40.62 166.405 41.02C166.105 41.54 165.845 41.68 165.725 41.6C165.645 41.56 165.685 41.36 165.805 41.14C165.965 40.84 166.165 40.2 165.685 39.9C165.525 39.8 165.385 39.52 165.405 39.3C165.425 39 165.625 38.76 166.005 38.76Z" fill="#212121"/>
<path d="M164.083 120.877L164.083 70.164C164.083 69.7439 164.419 69.4033 164.833 69.4033C165.248 69.4033 165.583 69.7439 165.583 70.164L165.583 120.877C165.583 121.297 165.248 121.638 164.833 121.638C164.419 121.638 164.083 121.297 164.083 120.877Z" fill="#5C65FF"/>
<path d="M112.036 110.871C112.42 110.584 114.218 109.764 114.603 109.764C115.022 109.764 115.353 109.965 115.598 110.367C115.877 110.741 115.711 111.915 115.711 112.461C115.711 113.668 114.079 114.593 113.031 115.311C111.216 116.547 109.156 117.165 106.851 117.165C103.534 117.165 101.108 116.03 99.5715 113.759C98.0352 111.46 97.2671 108.471 97.2671 104.793C97.2671 101.287 97.8083 97.2921 98.8907 92.8088C100.008 88.3256 101.631 84.4746 103.761 81.2558C105.926 78.0371 108.492 76.4277 111.46 76.4277C113.136 76.4277 114.445 77.0744 115.388 78.3676C116.366 79.6321 116.855 81.457 116.855 83.8423C116.855 87.2623 115.702 91.2282 113.398 95.7402C111.128 100.252 108.021 104.707 104.076 109.104C104.32 110.282 104.756 111.13 105.385 111.647C106.013 112.164 106.869 112.423 107.951 112.423C108.545 112.423 109.208 112.279 109.941 111.992C110.709 111.705 111.408 111.331 112.036 110.871ZM110.308 80.6954C109.505 80.6954 108.597 81.8881 107.585 84.2734C106.572 86.6587 105.682 89.6188 104.914 93.1537C104.145 96.6886 103.726 100.08 103.657 103.327C106.136 99.9648 108.108 96.6024 109.575 93.2399C111.041 89.8487 111.774 86.7593 111.774 83.9717C111.774 81.7875 111.286 80.6954 110.308 80.6954Z" fill="#212121"/>
<path d="M99.6668 107.336C100.121 107.336 100.47 107.509 100.714 107.854C100.994 108.198 101.133 108.673 101.133 109.276C101.133 110.426 100.802 111.317 100.138 111.949C98.6368 113.472 96.9958 114.722 95.2151 115.699C93.4694 116.676 91.4792 117.165 89.2446 117.165C86.1721 117.165 83.8851 116.015 82.3837 113.716C80.9173 111.417 80.1841 108.443 80.1841 104.793C80.1841 101.287 80.7253 97.2921 81.8076 92.8088C82.9249 88.3256 84.5485 84.4746 86.6783 81.2558C88.8431 78.0371 91.4094 76.4277 94.3772 76.4277C96.0531 76.4277 97.3624 77.0744 98.3051 78.3676C99.2828 79.6321 99.7716 81.457 99.7716 83.8423C99.7716 87.2623 98.6194 91.2282 96.315 95.7402C94.0105 100.252 90.8856 104.721 86.9402 109.147C87.1846 110.325 87.5861 111.173 88.1448 111.69C88.7034 112.179 89.4366 112.423 90.3444 112.423C91.776 112.423 93.0329 112.093 94.1153 111.432C95.1977 110.742 96.5768 109.578 98.2528 107.94C98.6717 107.537 99.1431 107.336 99.6668 107.336ZM93.2249 80.6954C92.4219 80.6954 91.5141 81.8881 90.5016 84.2734C89.489 86.6587 88.5987 89.6188 87.8305 93.1537C87.0624 96.6886 86.6434 100.08 86.5736 103.327C89.0526 99.9648 91.0253 96.6024 92.4917 93.2399C93.9582 89.8487 94.6914 86.7593 94.6914 83.9717C94.6914 81.7875 94.2026 80.6954 93.2249 80.6954Z" fill="#212121"/>
<path d="M73.7843 84.9164C72.1264 84.9164 70.883 84.5361 70.054 83.7754C69.2251 82.9746 68.8106 81.8736 68.8106 80.4724C68.8106 79.0711 69.3435 77.91 70.4093 76.9892C71.5146 76.0283 72.8764 75.5479 74.4948 75.5479C75.9553 75.5479 77.1396 75.9082 78.0475 76.6288C78.9553 77.3495 79.4093 78.3704 79.4093 79.6916C79.4093 81.2931 78.8961 82.5743 77.8698 83.5352C76.8435 84.456 75.4817 84.9164 73.7843 84.9164ZM73.3106 117.166C70.7448 117.166 68.8698 116.245 67.6856 114.403C66.5409 112.562 65.9685 110.119 65.9685 107.077C65.9685 105.275 66.1856 102.973 66.6198 100.17C67.0935 97.3278 67.6856 94.6853 68.3961 92.2431C68.7514 90.9619 69.2251 90.0811 69.8172 89.6007C70.4093 89.1203 71.3567 88.88 72.6593 88.88C74.6725 88.88 75.679 89.5607 75.679 90.9219C75.679 91.9228 75.304 94.2449 74.554 97.8883C73.6067 102.292 73.133 105.275 73.133 106.836C73.133 108.038 73.2909 108.958 73.6067 109.599C73.9225 110.24 74.4553 110.56 75.2053 110.56C75.9159 110.56 76.804 110.059 77.8698 109.058C78.9356 108.058 80.3567 106.476 82.133 104.314C82.6067 103.754 83.1396 103.473 83.7317 103.473C84.2448 103.473 84.6396 103.714 84.9159 104.194C85.2317 104.674 85.3896 105.335 85.3896 106.176C85.3896 107.777 85.0146 109.018 84.2646 109.899C80.3567 114.744 76.7053 117.166 73.3106 117.166Z" fill="#212121"/>
<path d="M73.5528 67.081C74.6581 67.2411 75.4081 67.5814 75.8028 68.1019C76.237 68.6224 76.4541 69.303 76.4541 70.1438C76.4541 72.9063 74.9936 74.1875 72.0726 73.9873L70.0002 73.8071C67.6712 73.607 65.3423 73.4468 63.0134 73.3267C60.7239 73.2066 58.316 73.1465 55.7897 73.1465H53.1252C52.6515 79.0719 52.1581 84.4769 51.6449 89.3614L59.8555 89.1812C61.316 89.1812 62.2831 89.4414 62.7568 89.9619C63.2699 90.4824 63.5265 91.183 63.5265 92.0638C63.5265 93.4251 63.1318 94.5061 62.3423 95.3068C61.5528 96.0675 60.4278 96.4478 58.9673 96.4478H50.816L50.4607 99.0302C49.6318 105.636 47.8555 110.341 45.1318 113.143C42.4476 115.946 38.737 117.347 34.0002 117.347C31.316 117.347 28.8489 116.766 26.5989 115.605C24.3489 114.404 22.691 112.963 21.6252 111.281C21.191 110.601 20.9739 109.78 20.9739 108.819C20.9739 107.858 21.191 107.017 21.6252 106.297C22.0989 105.576 22.6712 105.216 23.3423 105.216C23.816 105.216 24.2699 105.376 24.7041 105.696C25.1778 106.017 25.7699 106.637 26.4805 107.558C28.3752 110.08 30.7239 111.341 33.5265 111.341C35.7765 111.341 37.6515 110.421 39.1515 108.579C40.691 106.697 41.6778 103.755 42.112 99.7508L42.4673 96.4478H41.5989C40.691 96.4478 39.9015 96.1876 39.2305 95.6671C38.5989 95.1466 38.2831 94.406 38.2831 93.4451C38.2831 92.2039 38.5989 91.2631 39.2305 90.6225C39.862 89.9419 40.7897 89.6016 42.0134 89.6016C43.1186 89.6016 42.2305 89.5816 43.2962 89.5415C43.7699 85.1375 44.2831 79.7926 44.8357 73.5069C40.5726 73.9072 37.5726 74.6079 35.8357 75.6088C34.0989 76.6097 33.2305 78.091 33.2305 80.0528C33.2305 81.4141 33.6252 82.7153 34.4147 83.9564C34.6515 84.3167 34.7699 84.6771 34.7699 85.0374C34.7699 85.7581 34.3752 86.3986 33.5857 86.9592C32.7962 87.4796 31.9081 87.7399 30.9212 87.7399C29.8555 87.7399 28.9476 87.4196 28.1976 86.779C27.7239 86.3786 27.2699 85.5579 26.8357 84.3167C26.4015 83.0756 26.1844 81.6943 26.1844 80.173C26.1844 75.2084 28.691 71.6051 33.7041 69.3631C38.7568 67.121 46.1186 66 55.7897 66C62.5002 66 68.4212 66.3603 73.5528 67.081Z" fill="#212121"/>
<path d="M164.312 124.951C167.156 124.951 168.684 126.585 169.759 127.978L170.194 128.555L170.281 128.683C170.678 129.34 170.525 130.209 169.907 130.686C169.289 131.162 168.423 131.079 167.904 130.515L167.806 130.396L167.393 129.852C166.463 128.658 165.735 127.994 164.312 127.994C162.774 127.994 162.015 128.863 160.801 130.419C159.671 131.866 158.087 133.999 154.937 133.999C151.688 133.999 150.157 131.865 149.056 130.396C147.907 128.862 147.188 127.994 145.562 127.994C144.024 127.994 143.265 128.863 142.051 130.419C140.921 131.866 139.337 133.999 136.187 133.999C133.344 133.999 131.816 132.365 130.741 130.973L130.306 130.396L129.893 129.852C128.963 128.658 128.235 127.994 126.812 127.994C125.274 127.994 124.515 128.863 123.301 130.419C122.171 131.866 120.587 133.999 117.437 133.999C114.188 133.999 112.657 131.865 111.556 130.396C110.407 128.862 109.688 127.994 108.062 127.994C106.524 127.994 105.765 128.863 104.551 130.419C103.421 131.866 101.837 133.999 98.6874 133.999C95.8443 133.999 94.3162 132.365 93.2412 130.973L92.8056 130.396L92.3925 129.852C91.4631 128.658 90.7346 127.994 89.3124 127.994C87.7744 127.994 87.0148 128.863 85.8007 130.419C84.6712 131.866 83.0867 133.999 79.9374 133.999C76.6879 133.999 75.1565 131.865 74.0556 130.396C72.9066 128.862 72.1879 127.994 70.5624 127.994C69.0244 127.994 68.2648 128.863 67.0507 130.419C65.9212 131.866 64.3367 133.999 61.1874 133.999C58.3443 133.999 56.8162 132.365 55.7412 130.973L55.3056 130.396L54.8925 129.852C53.9631 128.658 53.2346 127.994 51.8124 127.994C50.2744 127.994 49.5148 128.863 48.3007 130.419C47.1712 131.866 45.5867 133.999 42.4374 133.999C39.1879 133.999 37.6565 131.865 36.5556 130.396C35.4066 128.862 34.6879 127.994 33.0624 127.994C31.5244 127.994 30.7648 128.863 29.5507 130.419C28.4212 131.866 26.8367 133.999 23.6874 133.999C20.4379 133.999 18.9065 131.865 17.8056 130.396C17.3044 129.727 17.4332 128.772 18.0927 128.264C18.7522 127.756 19.6931 127.886 20.1943 128.555C21.3432 130.088 22.062 130.956 23.6874 130.956C25.2256 130.956 25.9849 130.086 27.1992 128.53C28.3286 127.083 29.9134 124.951 33.0624 124.951C36.3119 124.951 37.8434 127.085 38.9443 128.555C40.0932 130.088 40.812 130.956 42.4374 130.956C43.9756 130.956 44.7349 130.086 45.9492 128.53C47.0786 127.083 48.6634 124.951 51.8124 124.951C54.6557 124.951 56.1837 126.585 57.2587 127.978L57.6943 128.555L58.1074 129.098C59.037 130.291 59.7651 130.956 61.1874 130.956C62.7256 130.956 63.4849 130.086 64.6992 128.53C65.8286 127.083 67.4134 124.951 70.5624 124.951C73.8119 124.951 75.3433 127.085 76.4443 128.555C77.5932 130.088 78.312 130.956 79.9374 130.956C81.4756 130.956 82.2349 130.086 83.4492 128.53C84.5786 127.083 86.1634 124.951 89.3124 124.951C92.1557 124.951 93.6837 126.585 94.7587 127.978L95.1943 128.555L95.6074 129.098C96.537 130.291 97.2651 130.956 98.6874 130.956C100.226 130.956 100.985 130.086 102.199 128.53C103.329 127.083 104.913 124.951 108.062 124.951C111.312 124.951 112.843 127.085 113.944 128.555C115.093 130.088 115.812 130.956 117.437 130.956C118.976 130.956 119.735 130.086 120.949 128.53C122.079 127.083 123.663 124.951 126.812 124.951C129.656 124.951 131.184 126.585 132.259 127.978L132.694 128.555L133.107 129.098C134.037 130.291 134.765 130.956 136.187 130.956C137.726 130.956 138.485 130.086 139.699 128.53C140.829 127.083 142.413 124.951 145.562 124.951C148.812 124.951 150.343 127.085 151.444 128.555C152.593 130.088 153.312 130.956 154.937 130.956C156.476 130.956 157.235 130.086 158.449 128.53C159.579 127.083 161.163 124.951 164.312 124.951Z" fill="#5C65FF"/>
<path d="M154.769 110.127C154.951 111.605 155.802 113.392 155.802 114.192C155.802 115.486 154.223 116.41 152.644 116.41C149.789 116.41 150.154 113.453 150.154 108.402V107.663C149.243 109.45 148.453 110.681 147.482 112.037C145.417 114.931 143.231 116.718 140.619 116.718C136.733 116.718 134 114.192 134 110.373C134 107.971 135.518 103.167 137.644 99.5944C140.559 94.6052 144.142 91.4639 147.664 91.4639C150.397 91.4639 151.672 92.7574 152.583 95.098C152.887 95.7755 153.008 96.0835 153.555 96.2683C154.526 96.6378 155.316 97.069 155.437 98.3009C155.559 99.7792 154.951 103.598 154.769 106.062C154.648 107.54 154.648 109.142 154.769 110.127ZM140.134 111.79C142.563 111.79 146.206 106.431 148.271 102.12C147.846 101.689 147.725 101.196 147.725 100.518C147.725 100.026 147.907 99.348 148.15 98.7936C148.453 98.1777 148.636 97.6233 148.636 97.1306C148.636 96.5146 148.332 96.1451 147.846 96.1451C146.146 96.1451 141.47 103.475 140.377 106.555C139.891 107.91 139.405 109.573 139.405 110.866C139.405 111.359 139.526 111.79 140.134 111.79Z" fill="#212121"/>
<path d="M123.839 116.912C120.201 116.713 117.869 115.968 115.799 114.868C114.494 114.241 113.337 113.129 113.406 111.837C113.474 110.546 114.382 109.485 115.898 109.568C117.111 109.635 117.631 110.157 118.68 111.016C119.425 111.859 120.74 112.301 122.802 112.414C127.471 112.669 129.81 111.009 129.872 109.84C129.895 109.409 129.665 109.15 129.187 109.001C128.462 108.899 127.735 108.859 125.794 108.753C121.974 108.544 118.665 107.869 117.262 106.805C115.855 105.803 115.305 104.724 115.39 103.125C115.593 99.3119 118.705 94.5476 122.532 92.3514C123.851 91.5601 125.45 91.2159 126.966 91.2989C129.028 91.4118 131.247 93.1371 132.298 95.1069C132.798 95.9978 133.036 97.2446 132.98 98.2901C132.872 100.32 131.787 102.419 129.786 102.31C128.209 102.223 126.548 101.454 126.623 100.039C126.656 99.4242 126.921 99.007 127.436 98.48C127.819 98.1309 127.96 97.7685 127.99 97.215C128.032 96.4154 127.752 95.9683 127.145 95.935C126.357 95.8919 125.364 96.2693 124.217 97.2551C122.37 98.8194 121.103 100.909 121.024 102.385C120.995 102.939 121.106 103.13 122.009 103.303C124.846 103.705 129.465 103.773 131.969 104.712C134.177 105.511 135.228 107.481 135.113 109.634C134.877 114.062 129.661 117.231 123.839 116.912Z" fill="#212121"/>
</svg>
